<?xml version="1.0" standalone="no"?>
<!DOCTYPE svg PUBLIC "-//W3C//DTD SVG 20010904//EN"
 "http://www.w3.org/TR/2001/REC-SVG-20010904/DTD/svg10.dtd">
<svg version="1.0" xmlns="http://www.w3.org/2000/svg"
 width="498.000000pt" height="501.000000pt" viewBox="0 0 498.000000 501.000000"
 preserveAspectRatio="xMidYMid meet">

<g transform="translate(0.000000,501.000000) scale(0.100000,-0.100000)"
fill="#000000" stroke="none">
<path d="M2365 4780 c-580 -62 -1155 -365 -1540 -812 -287 -334 -484 -751
-555 -1178 -44 -265 -47 -420 -13 -705 23 -203 118 -538 161 -573 21 -16 26
-15 52 6 l23 18 -47 139 c-81 240 -116 455 -116 708 0 241 34 485 94 667 32
97 32 84 1 -34 -47 -181 -60 -303 -60 -546 0 -170 5 -251 18 -334 132 -785
690 -1441 1435 -1686 586 -192 1214 -129 1738 175 176 102 304 202 459 358 77
77 133 131 124 121 -240 -294 -558 -527 -919 -677 -466 -192 -995 -210 -1480
-50 -118 39 -321 133 -420 195 -127 79 -286 208 -395 317 -111 113 -138 128
-166 95 -11 -13 -10 -21 6 -51 23 -43 225 -238 326 -315 278 -212 623 -361
959 -414 134 -21 513 -30 620 -15 389 56 683 165 995 369 386 252 716 646 898
1073 99 232 170 524 185 759 26 427 -37 778 -207 1150 -214 469 -635 878
-1108 1076 -336 141 -723 200 -1068 164z m510 -105 c302 -44 589 -152 840
-316 222 -145 440 -358 582 -569 203 -302 328 -660 364 -1040 18 -195 -5 -490
-55 -696 -29 -118 -91 -312 -107 -334 -9 -12 -9 -11 -3 5 155 421 175 907 54
1336 -96 337 -271 644 -510 893 -367 382 -818 601 -1349 655 -464 48 -969 -77
-1362 -337 -127 -84 -209 -151 -349 -286 -60 -59 -79 -74 -45 -36 403 436 891
681 1475 740 110 11 338 4 465 -15z m418 -1216 c15 -7 29 -20 32 -30 13 -39
21 -170 15 -257 -3 -50 -4 -92 -3 -92 0 0 13 20 27 44 63 107 180 174 288 164
40 -4 56 -12 89 -44 l39 -38 0 52 0 52 50 0 c62 0 114 -21 130 -51 9 -16 11
-53 6 -126 -18 -308 -18 -307 -3 -351 l15 -44 -34 -14 c-44 -18 -114 -18 -141
1 -24 17 -38 55 -48 128 l-6 49 -39 -77 c-45 -90 -62 -111 -112 -136 -80 -41
-178 -12 -228 67 -16 26 -33 62 -36 81 -4 19 -11 30 -16 26 -12 -7 -4 -137 11
-177 8 -21 7 -27 -7 -35 -29 -16 -90 -24 -127 -17 -77 15 -91 102 -59 356 17
142 23 371 11 444 l-9 49 65 -6 c35 -3 76 -11 90 -18z m-2138 -243 c45 -19 51
-49 48 -244 -2 -176 -3 -175 86 -75 62 70 114 166 137 253 10 36 21 69 25 74
10 12 97 -71 120 -116 27 -52 24 -96 -9 -149 -28 -42 -117 -135 -174 -179 -24
-19 -26 -24 -16 -43 38 -72 190 -195 270 -219 43 -13 47 -25 18 -56 -44 -47
-120 -68 -183 -51 -54 14 -132 94 -191 196 -46 80 -48 81 -75 72 -27 -10 -29
-14 -35 -82 -6 -61 0 -130 16 -197 4 -17 -51 -39 -99 -39 -109 -2 -132 78 -98
344 21 161 30 407 18 473 l-10 52 59 0 c32 0 74 -6 93 -14z m1868 -27 c61 -17
71 -42 63 -164 -18 -311 -18 -309 -3 -353 l15 -44 -34 -14 c-39 -16 -107 -18
-135 -4 -27 15 -45 57 -54 123 l-7 58 -32 -68 c-57 -118 -110 -163 -191 -163
-40 0 -100 22 -128 48 -25 23 -57 86 -72 142 l-12 45 -22 -66 c-47 -143 -109
-209 -207 -223 -94 -12 -152 25 -175 114 -7 27 -15 50 -18 50 -3 0 -19 -30
-35 -65 -38 -85 -101 -145 -151 -145 -59 0 -114 35 -136 86 -21 45 -39 169
-39 264 0 52 -20 163 -35 203 -6 15 -1 17 39 17 64 0 118 -24 141 -63 16 -27
20 -55 22 -175 1 -78 8 -162 14 -185 l12 -42 30 65 c49 108 78 240 79 363 l1
109 36 -7 c57 -10 116 -50 136 -91 14 -29 18 -69 20 -178 2 -89 8 -158 18
-186 l14 -45 36 75 c19 41 42 102 51 135 22 90 39 232 32 282 -7 51 -1 53 75
24 74 -28 89 -45 89 -100 l1 -46 24 45 c27 53 102 125 148 145 45 19 120 28
157 20 18 -4 50 -23 71 -42 l39 -35 0 51 0 51 43 0 c23 0 59 -5 80 -11z
m-1043 -1022 c87 -43 93 -56 85 -189 -3 -59 -8 -115 -11 -125 -3 -10 5 -4 18
12 77 100 140 137 243 143 68 4 72 3 118 -32 l47 -36 0 51 0 51 58 -7 c31 -4
71 -13 89 -20 40 -17 48 -53 39 -174 -16 -208 -18 -308 -8 -315 22 -13 38 418
19 523 l-8 44 72 -6 c88 -7 113 -23 125 -77 l9 -41 37 49 c99 134 272 117 351
-33 29 -56 36 -203 13 -273 -39 -116 -114 -189 -222 -213 -68 -15 -101 -3
-153 59 l-39 45 -7 -105 c-7 -106 -1 -198 17 -231 7 -14 3 -20 -26 -32 -41
-17 -109 -20 -137 -5 -33 18 -49 64 -49 145 l0 75 -27 -7 c-45 -13 -112 -7
-132 11 -24 22 -38 58 -46 121 l-7 50 -28 -57 c-61 -125 -95 -159 -173 -173
-52 -10 -117 16 -160 64 -38 42 -56 86 -67 165 l-7 51 -13 -33 c-58 -153 -134
-261 -205 -293 -52 -24 -139 -24 -185 -1 -64 32 -86 99 -146 437 -22 129 -51
250 -80 344 l-7 24 71 -6 c152 -15 157 -24 197 -403 14 -128 44 -286 57 -300
8 -7 67 107 102 194 48 122 68 254 64 429 l-3 142 25 -5 c14 -3 54 -20 90 -37z
m1804 -10 c52 -30 77 -65 83 -120 4 -37 1 -54 -20 -89 -43 -74 -168 -146 -279
-162 -27 -4 -48 -11 -48 -15 0 -17 59 -62 94 -72 53 -14 135 5 196 46 46 31
50 32 50 13 0 -35 -31 -87 -73 -123 -52 -44 -125 -68 -212 -69 -207 -2 -317
182 -236 395 51 134 181 218 336 219 54 0 79 -5 109 -23z"/>
<path d="M3601 3182 c-22 -12 -46 -39 -65 -73 -27 -47 -31 -64 -31 -129 0
-114 46 -174 119 -156 43 11 97 110 131 242 16 61 6 107 -25 124 -29 16 -92
12 -129 -8z"/>
<path d="M2719 3067 c-103 -70 -132 -251 -53 -338 25 -28 79 -25 110 6 48 48
122 251 107 293 -22 64 -100 82 -164 39z"/>
<path d="M2972 1990 c-37 -23 -68 -68 -83 -123 -15 -56 -12 -189 5 -230 54
-131 202 -13 214 170 6 92 -3 135 -34 173 -30 35 -56 38 -102 10z"/>
<path d="M2294 1901 c-96 -59 -124 -253 -47 -333 49 -52 103 -26 153 71 58
116 77 226 44 262 -23 26 -107 26 -150 0z"/>
<path d="M3597 2075 c-41 -21 -65 -53 -82 -109 -16 -53 -20 -106 -7 -106 28 0
142 51 169 76 27 26 33 39 33 72 0 32 -6 45 -26 61 -32 25 -49 26 -87 6z"/>
</g>
</svg>
